HIERARCHY
ROOT joint_0
{
	OFFSET 0.000000 0.000000 0.000000
	CHANNELS 6 Xposition Yposition Zposition Zrotation Yrotation Xrotation 
	JOINT joint_1
	{
		OFFSET 11.612000 -0.419000 106.198000
		CHANNELS 3 Zrotation Yrotation Xrotation
		JOINT joint_2
		{
			OFFSET -1.708000 -1.022000 97.564090
			CHANNELS 3 Zrotation Yrotation Xrotation
			JOINT joint_3
			{
				OFFSET -4.121000 -1.538000 97.375000
				CHANNELS 3 Zrotation Yrotation Xrotation
				JOINT joint_4
				{
					OFFSET 5.442000 -2.123000 132.795900
					CHANNELS 3 Zrotation Yrotation Xrotation
					JOINT joint_5
					{
						OFFSET 21.935000 0.195000 82.975100
						CHANNELS 3 Zrotation Yrotation Xrotation
						End Site
						{
							OFFSET 0.000000 0.000000 0.000000
						}
					}
				}
				JOINT joint_6
				{
					OFFSET 4.262000 -30.048000 73.899900
					CHANNELS 3 Zrotation Yrotation Xrotation
					JOINT joint_7
					{
						OFFSET 9.731000 -136.810010 -21.963010
						CHANNELS 3 Zrotation Yrotation Xrotation
						JOINT joint_8
						{
							OFFSET 33.360000 -35.709000 -267.597900
							CHANNELS 3 Zrotation Yrotation Xrotation
							JOINT joint_9
							{
								OFFSET 36.156000 -29.759000 -240.558040
								CHANNELS 3 Zrotation Yrotation Xrotation
								End Site
								{
									OFFSET 0.000000 0.000000 0.000000
								}
							}
						}
					}
				}
				JOINT joint_10
				{
					OFFSET 2.027000 27.734000 74.914920
					CHANNELS 3 Zrotation Yrotation Xrotation
					JOINT joint_11
					{
						OFFSET -5.183000 136.784000 -23.604980
						CHANNELS 3 Zrotation Yrotation Xrotation
						JOINT joint_12
						{
							OFFSET 29.806000 37.229000 -267.809940
							CHANNELS 3 Zrotation Yrotation Xrotation
							JOINT joint_13
							{
								OFFSET 36.890000 46.524990 -237.772030
								CHANNELS 3 Zrotation Yrotation Xrotation
								End Site
								{
									OFFSET 0.000000 0.000000 0.000000
								}
							}
						}
					}
				}
			}
		}
	}
	JOINT joint_14
	{
		OFFSET -7.290000 -102.873990 -124.314940
		CHANNELS 3 Zrotation Yrotation Xrotation
		JOINT joint_15
		{
			OFFSET -15.466000 -19.909010 -438.533020
			CHANNELS 3 Zrotation Yrotation Xrotation
			JOINT joint_16
			{
				OFFSET -26.899000 -18.922000 -464.797000
				CHANNELS 3 Zrotation Yrotation Xrotation
				JOINT joint_17
				{
					OFFSET 179.329000 -12.011000 -84.174000
					CHANNELS 3 Zrotation Yrotation Xrotation
					End Site
					{
						OFFSET 0.000000 0.000000 0.000000
					}
				}
			}
		}
	}
	JOINT joint_18
	{
		OFFSET -6.225000 101.546000 -125.479980
		CHANNELS 3 Zrotation Yrotation Xrotation
		JOINT joint_19
		{
			OFFSET -13.973000 7.996000 -438.963010
			CHANNELS 3 Zrotation Yrotation Xrotation
			JOINT joint_20
			{
				OFFSET -44.294000 5.716000 -463.813970
				CHANNELS 3 Zrotation Yrotation Xrotation
				JOINT joint_21
				{
					OFFSET 178.505000 -4.689000 -85.139000
					CHANNELS 3 Zrotation Yrotation Xrotation
					End Site
					{
						OFFSET 0.000000 0.000000 0.000000
					}
				}
			}
		}
	}
}
MOTION
Frames: 13
Frame Time: 0.016667
813.284000 -148.671010 1078.447020 1.928303 5.497873 -3.700436 -4.414379 18.749181 7.574387 2.084090 -2.603134 -1.694134 3.531900 2.363854 1.103824 -0.411552 5.955871 0.959456 0.000000 0.000000 0.000000 -3.561979 0.029210 1.987456 -0.672145 -0.952781 -4.743946 -0.121262 -4.161721 -4.559839 0.000000 0.000000 0.000000 -1.661601 -1.494544 3.536220 -1.576509 -1.901013 -5.171353 -4.168678 -21.337720 -5.238550 0.000000 0.000000 0.000000 -0.063893 -17.479770 7.693031 -7.225418 33.114699 0.256594 -8.396417 -21.180977 -5.048424 0.000000 0.000000 0.000000 3.318978 -27.861281 3.863633 -0.805208 76.038298 4.054126 5.069986 9.291651 2.386441 0.000000 0.000000 0.000000 
842.883000 -150.863010 1081.458010 2.896738 5.837276 -3.573230 -4.210851 18.733713 7.264070 2.351522 -2.614917 -1.691191 3.834620 2.365966 1.035021 -0.512819 5.947833 1.119507 0.000000 0.000000 0.000000 -3.685338 -0.337784 1.791333 -0.502727 -1.255086 -3.620458 -0.313868 -4.094857 -5.580661 0.000000 0.000000 0.000000 -1.521872 -1.333352 3.614109 -1.658544 -1.725801 -4.760657 -4.763732 -23.720665 -5.838154 0.000000 0.000000 0.000000 -1.040026 -14.997484 8.242403 -7.254896 31.346855 -0.451019 -8.220877 -20.883942 -4.938681 0.000000 0.000000 0.000000 3.388815 -31.603156 3.360534 -1.197537 75.258179 2.733540 6.031953 5.497156 2.770819 0.000000 0.000000 0.000000 
872.794980 -152.702000 1086.761960 3.746281 6.196477 -3.396591 -3.735624 18.540627 6.757879 2.575137 -2.626387 -1.616722 3.990696 2.380557 0.922844 -0.613366 5.987470 1.261109 0.000000 0.000000 0.000000 -3.991312 -0.503264 1.388498 -0.332229 -1.393622 -2.766621 -0.105201 -5.198629 -4.974230 0.000000 0.000000 0.000000 -1.145178 -1.248611 3.416686 -1.679037 -1.584389 -3.191900 -5.497828 -26.468918 -6.616890 0.000000 0.000000 0.000000 -2.109476 -12.038505 8.751091 -7.097457 28.516675 -1.294970 -7.789363 -19.548994 -4.638534 0.000000 0.000000 0.000000 3.162834 -34.779646 2.921289 -1.325589 72.071529 1.023128 5.987769 2.810757 2.557462 0.000000 0.000000 0.000000 
903.414000 -153.789990 1093.353030 4.337907 6.528693 -3.182352 -3.093875 18.401763 6.132520 2.765949 -2.674024 -1.498001 4.060349 2.388535 0.802775 -0.693893 5.994572 1.344879 0.000000 0.000000 0.000000 -4.239806 -0.518430 0.873369 -0.222872 -1.376436 -2.145457 0.291444 -7.026137 -3.632263 0.000000 0.000000 0.000000 -0.708402 -1.171885 3.128557 -1.745388 -1.456357 -1.553419 -6.199495 -28.703665 -7.325087 0.000000 0.000000 0.000000 -2.936699 -9.127219 8.977279 -6.757032 25.685367 -1.912077 -7.193155 -17.266342 -4.208405 0.000000 0.000000 0.000000 2.818631 -37.288939 2.440601 -1.063240 67.421736 -0.599810 5.711737 0.874151 2.303728 0.000000 0.000000 0.000000 
934.994020 -153.845000 1100.977050 4.592375 6.945765 -2.960603 -2.323598 18.236465 5.576440 2.925223 -2.702742 -1.416448 4.073637 2.399043 0.696203 -0.723216 5.919246 1.302009 0.000000 0.000000 0.000000 -4.244246 -0.361670 0.297624 -0.251489 -1.141126 -1.758515 0.763086 -9.451835 -1.965754 0.000000 0.000000 0.000000 -0.334335 -0.999001 2.867120 -1.902672 -1.265705 -0.588423 -6.726865 -29.872953 -7.768605 0.000000 0.000000 0.000000 -3.307587 -6.790153 8.814215 -6.234573 23.603170 -2.090380 -6.480202 -13.999777 -3.665027 0.000000 0.000000 0.000000 2.597786 -39.309207 1.804725 -0.337131 61.719606 -1.814544 5.661600 -0.886338 2.220404 0.000000 0.000000 0.000000 
967.388000 -153.028000 1110.036990 4.532792 7.442825 -2.761862 -1.373477 18.010686 5.091857 3.055872 -2.714247 -1.374318 4.031251 2.408367 0.579382 -0.703659 5.792019 1.138983 0.000000 0.000000 0.000000 -4.092755 -0.011475 -0.296504 -0.498981 -0.671363 -1.635230 1.317566 -12.726199 0.283800 0.000000 0.000000 0.000000 0.043479 -0.748441 2.567082 -2.090439 -1.012756 0.106819 -7.123242 -30.317605 -8.029020 0.000000 0.000000 0.000000 -3.284531 -4.795664 8.388212 -5.502698 21.798111 -1.973544 -5.604005 -9.639562 -2.982270 0.000000 0.000000 0.000000 2.431725 -40.590453 1.150471 0.692470 54.069960 -2.844566 5.519925 -1.531444 2.170416 0.000000 0.000000 0.000000 
1000.607970 -151.350010 1118.574950 4.290009 7.808064 -2.730510 -0.479249 17.882610 4.708612 3.153617 -2.743279 -1.345031 3.981317 2.410560 0.472278 -0.666448 5.698145 0.947857 0.000000 0.000000 0.000000 -3.949226 0.281264 -0.833972 -0.901601 -0.256838 -1.752086 1.782084 -15.981448 2.672143 0.000000 0.000000 0.000000 0.404909 -0.404022 2.362898 -2.279757 -0.679259 0.395867 -7.369489 -30.222544 -8.086064 0.000000 0.000000 0.000000 -2.991223 -2.997423 7.944230 -4.687549 20.478530 -1.679638 -4.705916 -4.984630 -2.276585 0.000000 0.000000 0.000000 2.344206 -40.982614 0.472368 1.752352 45.490935 -3.259885 5.301729 -1.659540 2.122598 0.000000 0.000000 0.000000 
1034.672970 -148.496990 1125.608030 4.152535 8.095994 -2.894027 0.155186 17.609691 4.485579 3.133757 -2.668840 -1.313931 3.840349 2.430803 0.411514 -0.632182 5.693609 0.783837 0.000000 0.000000 0.000000 -3.893729 0.348139 -1.333864 -1.340333 -0.100846 -2.203727 2.143210 -18.659205 5.097268 0.000000 0.000000 0.000000 0.731434 0.054845 2.340696 -2.466900 -0.251386 0.019336 -7.419169 -29.567848 -7.868614 0.000000 0.000000 0.000000 -2.569865 -1.510361 7.551222 -3.918745 19.827637 -1.167232 -3.883887 -0.400791 -1.614861 0.000000 0.000000 0.000000 2.333744 -40.764241 -0.521506 2.660086 36.609758 -2.556412 4.947308 -2.931564 1.976661 0.000000 0.000000 0.000000 
1069.573970 -144.464000 1131.905030 3.936260 8.296047 -3.280221 0.638540 17.297030 4.479583 3.059554 -2.541727 -1.331192 3.673886 2.450218 0.384817 -0.586489 5.744373 0.606942 0.000000 0.000000 0.000000 -3.858814 0.278815 -1.788771 -1.840064 -0.101600 -3.046671 2.472679 -21.056986 7.777887 0.000000 0.000000 0.000000 1.028319 0.612521 2.401960 -2.641817 0.259856 -0.949064 -7.247933 -28.243229 -7.364400 0.000000 0.000000 0.000000 -1.921648 -0.284257 7.205493 -3.059860 19.692720 -0.410191 -2.962685 4.551416 -0.901306 0.000000 0.000000 0.000000 2.417683 -39.676364 -1.715897 3.315114 26.301730 -1.016846 4.394773 -4.661611 1.706661 0.000000 0.000000 0.000000 
1105.302980 -140.672000 1135.913940 3.323872 7.984778 -4.015640 1.106888 17.552596 4.659838 3.091191 -2.672811 -1.449918 3.667899 2.433644 0.352894 -0.556758 5.868746 0.498682 0.000000 0.000000 0.000000 -3.888017 0.142578 -2.068209 -2.231518 -0.203934 -3.787295 2.729485 -22.858137 10.004710 0.000000 0.000000 0.000000 1.281685 1.206988 2.496731 -2.740891 0.827743 -1.854510 -6.961204 -26.746799 -6.770869 0.000000 0.000000 0.000000 -1.077907 1.066313 7.261685 -2.106394 20.214426 0.176033 -1.920394 8.963926 -0.191552 0.000000 0.000000 0.000000 2.578787 -37.582036 -2.138883 3.580341 16.164888 0.089728 3.910214 -4.879653 1.474556 0.000000 0.000000 0.000000 
1142.120000 -138.274990 1136.666990 2.865708 7.383612 -4.857468 1.425702 17.804135 4.743078 3.042904 -2.882195 -1.549450 3.586385 2.432980 0.335458 -0.573517 6.102856 0.549311 0.000000 0.000000 0.000000 -4.041328 -0.011248 -2.087989 -2.316276 -0.383087 -4.003092 2.908702 -23.734092 11.171588 0.000000 0.000000 0.000000 1.492515 1.836288 2.666437 -2.745446 1.464450 -2.325908 -6.654494 -25.476017 -6.205031 0.000000 0.000000 0.000000 -0.366871 2.348482 7.761915 -1.359306 21.530505 0.383152 -1.013565 12.047409 0.355866 0.000000 0.000000 0.000000 2.707460 -35.315953 -1.593257 3.713207 8.390721 -0.110435 3.644823 -4.731337 1.333208 0.000000 0.000000 0.000000 
1180.036010 -136.733000 1134.786010 2.996259 6.881645 -5.578225 1.446832 17.410861 4.555603 2.726222 -2.868596 -1.503702 3.200889 2.474102 0.359718 -0.626071 6.443739 0.730012 0.000000 0.000000 0.000000 -4.302604 -0.194163 -1.936494 -2.127615 -0.645007 -3.844866 3.058522 -23.821755 11.555797 0.000000 0.000000 0.000000 1.670083 2.526548 2.925514 -2.693542 2.175273 -2.629272 -6.292558 -24.228482 -5.591877 0.000000 0.000000 0.000000 0.059651 3.232733 8.413052 -0.954882 23.593683 0.454888 -0.310738 14.157470 0.731917 0.000000 0.000000 0.000000 2.744058 -33.182500 -0.731799 3.890607 2.302743 -1.184680 3.490546 -5.966091 1.197907 0.000000 0.000000 0.000000 
1217.832030 -135.088000 1129.785030 3.204655 6.137223 -6.268197 1.453150 17.028963 4.360079 2.323612 -2.832779 -1.442923 2.715601 2.516646 0.375098 -0.661131 6.823293 0.892311 0.000000 0.000000 0.000000 -4.555448 -0.358204 -1.816699 -1.864241 -0.884030 -3.527774 3.201907 -23.714292 11.640471 0.000000 0.000000 0.000000 1.738045 3.185118 3.146654 -2.571615 2.861308 -2.677432 -5.896083 -22.958742 -5.081397 0.000000 0.000000 0.000000 0.328614 3.917551 9.032644 -0.791597 26.651023 0.529480 0.356127 15.010207 0.981129 0.000000 0.000000 0.000000 2.603421 -31.424387 0.057260 4.021508 -1.181498 -2.011783 3.444794 -7.135806 1.113156 0.000000 0.000000 0.000000 
